<?xml version="1.0" encoding="UTF-8" standalone="no"?>
<svg xmlns="http://www.w3.org/2000/svg" viewBox="0 0 512 512" width="100" height="100">
  <g>
    <!-- Patinha rosa de gato -->
    <path d="M378.24 86.16c-19.93-19.93-50.08-24.04-78.36-12.4-4.17 1.7-8.22 3.78-12.13 6.18-23.56 14.33-39.3 40.54-39.3 72.07 0 31.53 15.71 57.73 39.25 72.06 16.56 10.07 35.98 13.87 54.32 10.17 7.26-1.46 14.32-4.06 20.97-7.87 4.36-2.5 8.5-5.55 12.34-9.14 29.37-27.38 36.21-74.02-0.57-110.8 1.31 0.98 2.62 2.01 3.9 3.11" 
          fill="#FF69B4" stroke="#333" stroke-width="15" stroke-linecap="round" stroke-linejoin="round"/>
    <path d="M193.13 102.25c-18.48-18.48-45.82-22.41-71.57-12.68-14.3 5.4-27.59 14.95-37.54 28.6-22.88 31.36-17.07 68.59 1.92 92.97 2.83 3.64 5.98 6.98 9.38 9.96 21.63 18.94 54.29 23.11 81.24 2.84 25.02-18.81 35.44-50.6 31.48-79.28-1.73-12.47-6.19-24.58-13.47-35.37-0.14-0.2-0.28-0.4-0.42-0.59" 
          fill="#FF69B4" stroke="#333" stroke-width="15" stroke-linecap="round" stroke-linejoin="round"/>
    <path d="M415.89 228.57c-9.94-13.64-23.23-23.18-37.52-28.58-25.77-9.73-53.1-5.8-71.59 12.68-0.14 0.19-0.28 0.39-0.42 0.59-7.28 10.78-11.74 22.9-13.47 35.37-3.96 28.68 6.46 60.47 31.48 79.28 26.95 20.27 59.61 16.1 81.24-2.84 3.4-2.98 6.55-6.32 9.38-9.96 18.99-24.38 24.81-61.61 1.92-92.97" 
          fill="#FF69B4" stroke="#333" stroke-width="15" stroke-linecap="round" stroke-linejoin="round"/>
    <path d="M296.17 359.11c-11.24-9.87-23.92-16.5-37.34-19.61-11.95-2.78-24.39-2.78-36.34 0-13.42 3.11-26.1 9.74-37.34 19.61-2.14 1.88-4.21 3.87-6.19 5.96-24.98 26.3-31.37 67.15-9.95 98.12 10.76 15.59 25.72 25.31 42.31 28.82 3.71 0.79 7.49 1.23 11.31 1.32 1.03 0.03 2.06 0.04 3.09 0.04 1.03 0 2.06-0.01 3.09-0.04 3.82-0.09 7.6-0.53 11.31-1.32 16.59-3.51 31.55-13.23 42.31-28.82 21.42-30.97 15.03-71.82-9.95-98.12-1.98-2.09-4.05-4.08-6.19-5.96Z" 
          fill="#FF69B4" stroke="#333" stroke-width="15" stroke-linecap="round" stroke-linejoin="round"/>
  </g>
</svg>